/* XPM */
static char *dummy[]={
"16 16 61 1",
"j c #b20000",
"v c #b30101",
"U c #b40303",
"0 c #b40404",
"A c #b50808",
"H c #b50909",
"q c #b70e0e",
"4 c #b70f0f",
"L c #b71010",
"Q c #b81111",
"n c #b91717",
"P c #bc2020",
"M c #bd2323",
"m c #be2727",
"E c #c02c2c",
"D c #c13030",
"r c #c43b3b",
"1 c #c53d3d",
"T c #c53f3f",
"I c #c64040",
"i c #c84949",
"z c #c94a4a",
"5 c #d06161",
"Y c #d06262",
"X c #d16464",
"w c #d16565",
"e c #d47070",
"u c #d57575",
"G c #da8484",
"V c #db8585",
"k c #de9292",
"B c #e19b9b",
"R c #e29d9d",
"p c #e4a4a4",
"K c #e5aaaa",
"3 c #e6abab",
"o c #e7aeae",
"f c #e8b3b3",
"C c #eab9b9",
"O c #ebbdbd",
"N c #edc3c3",
"l c #efcaca",
"F c #f0cccc",
"6 c #f0cece",
"2 c #f2d4d4",
"S c #f3d6d6",
"s c #f5dede",
"J c #f6e1e1",
"h c #f7e6e6",
"y c #f9eaea",
"W c #fbf0f0",
"Z c #fbf1f1",
"x c #fcf4f4",
"d c #fdf9f9",
"t c #fdfafa",
"g c #fefbfb",
"c c #fefcfc",
"a c #fefdfd",
"b c #fffdfd",
"# c #fffefe",
". c #ffffff",
".......#.ab.....",
"........c.def.a.",
".......g.hijk.c.",
".....#g.lmno.#..",
"....ac.pqrs.a...",
"...c.tuvwx.c....",
"..#.yzAB.#a.#...",
".#.CDEF.c#..g...",
".a.GHIJ.g.......",
"..b.KLMN.g#.....",
"...c.OPQR.cb....",
"....g.STUV.#a...",
".....c.WXvYZ.#..",
"......c#.G012.#.",
".......#c.345.a.",
"........#c.6y.#."};
